# xmcd
#
# Track frame offsets:
#	150
#	13344
#	27384
#	41656
#	53836
#	65752
#	83675
#	97033
#	111964
#	131174
#	160733
#	177234
#	187547
#	201592
#	213571
#
# Disc length: 3043 seconds
#
# Revision: 1
# Processed by: cddbd v1.5.2PL0 Copyright (c) Steve Scherf et al.
# Submitted via: audiograbber 1.83.01
#
DISCID=d80be10f
DTITLE=FRANCIS LOPES - EU E MEU CAVALO BRANCO
DYEAR=1900
DGENRE=FORRÓ
TTITLE0=EU NÃO SOU AVIÃO, MAS VOU TE LEVAR PRO CÉU
TTITLE1=O FRANCIS LOPES CHEGOU
TTITLE2=CAIPIRA ASSUMIDO
TTITLE3=MULHER BURRA EU NÃO QUERO
TTITLE4=NOSSO AMOR É DEMAIS
TTITLE5=TRANSBORDANDO DE PAIXÃO
TTITLE6=JOÃO BALAI
TTITLE7=DEUS PROTEGE ESSE AMOR
TTITLE8=VIVENDO DE APARÊNCIAS
TTITLE9=EU E MEU CAVALO BRANCO
TTITLE10=AMOR DE NOVELA(DORGIVAL DANTAS)
TTITLE11=DESTINO DE UM VAQUEIRO(DORGIVAL DANTAS)
TTITLE12=POR UMA BRIGA BÔBA
TTITLE13=CARTÃO VERMELHO
TTITLE14=BOI DA CARA PRETA
EXTD=
EXTT0=
EXTT1=
EXTT2=
EXTT3=
EXTT4=
EXTT5=
EXTT6=
EXTT7=
EXTT8=
EXTT9=
EXTT10=
EXTT11=
EXTT12=
EXTT13=
EXTT14=
PLAYORDER=
